solid OpenSCAD_Model
  facet normal -0.104518 0.994523 0
    outer loop
      vertex -0.317215 -3.01834 0
      vertex -0.317215 -3.01834 4
      vertex 0.937851 -2.88644 0
    endloop
  endfacet
  facet normal -0.104518 0.994523 0
    outer loop
      vertex -0.317215 -3.01834 4
      vertex 0.937851 -2.88644 4
      vertex 0.937851 -2.88644 0
    endloop
  endfacet
  facet normal -0.104518 -0.994523 0
    outer loop
      vertex -0.317215 3.01834 0
      vertex 0.937851 2.88644 0
      vertex 0.937851 2.88644 4
    endloop
  endfacet
  facet normal -0.104518 -0.994523 0
    outer loop
      vertex -0.317215 3.01834 0
      vertex 0.937851 2.88644 4
      vertex -0.317215 3.01834 4
    endloop
  endfacet
  facet normal 0 0 -1
    outer loop
      vertex -0.408066 -3.88257 0
      vertex -0.317215 -3.01834 0
      vertex 0.937851 -2.88644 0
    endloop
  endfacet
  facet normal 0 0 -1
    outer loop
      vertex -0.408066 -3.88257 0
      vertex 0.937851 -2.88644 0
      vertex 1.20639 -3.71289 0
    endloop
  endfacet
  facet normal 0.104525 -0.994522 0
    outer loop
      vertex -0.408066 -3.88257 0
      vertex 1.20639 -3.71289 0
      vertex -0.408066 -3.88257 4
    endloop
  endfacet
  facet normal 0 0 1
    outer loop
      vertex -0.408066 -3.88257 4
      vertex 0.937851 -2.88644 4
      vertex -0.317215 -3.01834 4
    endloop
  endfacet
  facet normal 0.104525 -0.994522 0
    outer loop
      vertex -0.408066 -3.88257 4
      vertex 1.20639 -3.71289 0
      vertex 1.20639 -3.71289 4
    endloop
  endfacet
  facet normal 0 0 1
    outer loop
      vertex -0.408066 -3.88257 4
      vertex 1.20639 -3.71289 4
      vertex 0.937851 -2.88644 4
    endloop
  endfacet
  facet normal 0.104525 0.994522 0
    outer loop
      vertex -0.408066 3.88257 0
      vertex -0.408066 3.88257 4
      vertex 1.20639 3.71289 4
    endloop
  endfacet
  facet normal 0 0 -1
    outer loop
      vertex -0.408066 3.88257 0
      vertex 0.937851 2.88644 0
      vertex -0.317215 3.01834 0
    endloop
  endfacet
  facet normal 0 0 -1
    outer loop
      vertex -0.408066 3.88257 0
      vertex 1.20639 3.71289 0
      vertex 0.937851 2.88644 0
    endloop
  endfacet
  facet normal 0.104525 0.994522 0
    outer loop
      vertex -0.408066 3.88257 0
      vertex 1.20639 3.71289 4
      vertex 1.20639 3.71289 0
    endloop
  endfacet
  facet normal 0 0 1
    outer loop
      vertex -0.408066 3.88257 4
      vertex -0.317215 3.01834 4
      vertex 0.937851 2.88644 4
    endloop
  endfacet
  facet normal 0 0 1
    outer loop
      vertex -0.408066 3.88257 4
      vertex 0.937851 2.88644 4
      vertex 1.20639 3.71289 4
    endloop
  endfacet
  facet normal 0 0 -1
    outer loop
      vertex -1.5175 -2.62836 0
      vertex -0.317215 -3.01834 0
      vertex -0.408066 -3.88257 0
    endloop
  endfacet
  facet normal 0.309005 0.95106 0
    outer loop
      vertex -1.5175 -2.62836 0
      vertex -1.5175 -2.62836 4
      vertex -0.317215 -3.01834 0
    endloop
  endfacet
  facet normal 0.309005 0.95106 0
    outer loop
      vertex -1.5175 -2.62836 4
      vertex -0.317215 -3.01834 4
      vertex -0.317215 -3.01834 0
    endloop
  endfacet
  facet normal 0 0 1
    outer loop
      vertex -1.5175 -2.62836 4
      vertex -0.408066 -3.88257 4
      vertex -0.317215 -3.01834 4
    endloop
  endfacet
  facet normal 0.309005 -0.95106 0
    outer loop
      vertex -1.5175 2.62836 0
      vertex -0.317215 3.01834 0
      vertex -0.317215 3.01834 4
    endloop
  endfacet
  facet normal 0.309005 -0.95106 0
    outer loop
      vertex -1.5175 2.62836 0
      vertex -0.317215 3.01834 4
      vertex -1.5175 2.62836 4
    endloop
  endfacet
  facet normal 0 0 -1
    outer loop
      vertex -1.5175 2.62836 0
      vertex -0.408066 3.88257 0
      vertex -0.317215 3.01834 0
    endloop
  endfacet
  facet normal 0 0 1
    outer loop
      vertex -1.5175 2.62836 4
      vertex -0.317215 3.01834 4
      vertex -0.408066 3.88257 4
    endloop
  endfacet
  facet normal -0.309018 -0.951056 0
    outer loop
      vertex -1.95198 -3.38092 0
      vertex -0.408066 -3.88257 0
      vertex -1.95198 -3.38092 4
    endloop
  endfacet
  facet normal 0 0 -1
    outer loop
      vertex -1.95198 -3.38092 0
      vertex -1.5175 -2.62836 0
      vertex -0.408066 -3.88257 0
    endloop
  endfacet
  facet normal -0.309018 -0.951056 0
    outer loop
      vertex -1.95198 -3.38092 4
      vertex -0.408066 -3.88257 0
      vertex -0.408066 -3.88257 4
    endloop
  endfacet
  facet normal 0 0 1
    outer loop
      vertex -1.95198 -3.38092 4
      vertex -0.408066 -3.88257 4
      vertex -1.5175 -2.62836 4
    endloop
  endfacet
  facet normal 0 0 -1
    outer loop
      vertex -1.95198 3.38092 0
      vertex -0.408066 3.88257 0
      vertex -1.5175 2.62836 0
    endloop
  endfacet
  facet normal -0.309018 0.951056 0
    outer loop
      vertex -1.95198 3.38092 0
      vertex -0.408066 3.88257 4
      vertex -0.408066 3.88257 0
    endloop
  endfacet
  facet normal -0.309018 0.951056 0
    outer loop
      vertex -1.95198 3.38092 0
      vertex -1.95198 3.38092 4
      vertex -0.408066 3.88257 4
    endloop
  endfacet
  facet normal 0 0 1
    outer loop
      vertex -1.95198 3.38092 4
      vertex -1.5175 2.62836 4
      vertex -0.408066 3.88257 4
    endloop
  endfacet
  facet normal 0 0 -1
    outer loop
      vertex -2.45532 -1.78394 0
      vertex -1.5175 -2.62836 0
      vertex -1.95198 -3.38092 0
    endloop
  endfacet
  facet normal 0.669132 0.743144 0
    outer loop
      vertex -2.45532 -1.78394 0
      vertex -2.45532 -1.78394 4
      vertex -1.5175 -2.62836 0
    endloop
  endfacet
  facet normal 0.669132 0.743144 0
    outer loop
      vertex -2.45532 -1.78394 4
      vertex -1.5175 -2.62836 4
      vertex -1.5175 -2.62836 0
    endloop
  endfacet
  facet normal 0 0 1
    outer loop
      vertex -2.45532 -1.78394 4
      vertex -1.95198 -3.38092 4
      vertex -1.5175 -2.62836 4
    endloop
  endfacet
  facet normal 0.669132 -0.743144 0
    outer loop
      vertex -2.45532 1.78394 0
      vertex -1.5175 2.62836 0
      vertex -1.5175 2.62836 4
    endloop
  endfacet
  facet normal 0.669132 -0.743144 0
    outer loop
      vertex -2.45532 1.78394 0
      vertex -1.5175 2.62836 4
      vertex -2.45532 1.78394 4
    endloop
  endfacet
  facet normal 0 0 -1
    outer loop
      vertex -2.45532 1.78394 0
      vertex -1.95198 3.38092 0
      vertex -1.5175 2.62836 0
    endloop
  endfacet
  facet normal 0 0 1
    outer loop
      vertex -2.45532 1.78394 4
      vertex -1.5175 2.62836 4
      vertex -1.95198 3.38092 4
    endloop
  endfacet
  facet normal 0.913546 0.406734 0
    outer loop
      vertex -2.96864 -0.630997 0
      vertex -2.96864 -0.630997 4
      vertex -2.45532 -1.78394 0
    endloop
  endfacet
  facet normal 1 0 0
    outer loop
      vertex -2.96864 -0.630997 0
      vertex -2.96864 0.630997 0
      vertex -2.96864 0.630997 4
    endloop
  endfacet
  facet normal 1 0 0
    outer loop
      vertex -2.96864 -0.630997 0
      vertex -2.96864 0.630997 4
      vertex -2.96864 -0.630997 4
    endloop
  endfacet
  facet normal 0.913546 0.406734 0
    outer loop
      vertex -2.96864 -0.630997 4
      vertex -2.45532 -1.78394 4
      vertex -2.45532 -1.78394 0
    endloop
  endfacet
  facet normal 0.913546 -0.406734 0
    outer loop
      vertex -2.96864 0.630997 0
      vertex -2.45532 1.78394 0
      vertex -2.45532 1.78394 4
    endloop
  endfacet
  facet normal 0.913546 -0.406734 0
    outer loop
      vertex -2.96864 0.630997 0
      vertex -2.45532 1.78394 4
      vertex -2.96864 0.630997 4
    endloop
  endfacet
  facet normal -0.669131 -0.743144 0
    outer loop
      vertex -3.15837 -2.29468 0
      vertex -1.95198 -3.38092 0
      vertex -3.15837 -2.29468 4
    endloop
  endfacet
  facet normal 0 0 -1
    outer loop
      vertex -3.15837 -2.29468 0
      vertex -2.45532 -1.78394 0
      vertex -1.95198 -3.38092 0
    endloop
  endfacet
  facet normal 0 0 -1
    outer loop
      vertex -3.15837 -2.29468 0
      vertex -2.96864 -0.630997 0
      vertex -2.45532 -1.78394 0
    endloop
  endfacet
  facet normal -0.669131 -0.743144 0
    outer loop
      vertex -3.15837 -2.29468 4
      vertex -1.95198 -3.38092 0
      vertex -1.95198 -3.38092 4
    endloop
  endfacet
  facet normal 0 0 1
    outer loop
      vertex -3.15837 -2.29468 4
      vertex -1.95198 -3.38092 4
      vertex -2.45532 -1.78394 4
    endloop
  endfacet
  facet normal 0 0 1
    outer loop
      vertex -3.15837 -2.29468 4
      vertex -2.45532 -1.78394 4
      vertex -2.96864 -0.630997 4
    endloop
  endfacet
  facet normal 0 0 -1
    outer loop
      vertex -3.15837 2.29468 0
      vertex -1.95198 3.38092 0
      vertex -2.45532 1.78394 0
    endloop
  endfacet
  facet normal -0.669131 0.743144 0
    outer loop
      vertex -3.15837 2.29468 0
      vertex -1.95198 3.38092 4
      vertex -1.95198 3.38092 0
    endloop
  endfacet
  facet normal 0 0 -1
    outer loop
      vertex -3.15837 2.29468 0
      vertex -2.45532 1.78394 0
      vertex -2.96864 0.630997 0
    endloop
  endfacet
  facet normal -0.669131 0.743144 0
    outer loop
      vertex -3.15837 2.29468 0
      vertex -3.15837 2.29468 4
      vertex -1.95198 3.38092 4
    endloop
  endfacet
  facet normal 0 0 1
    outer loop
      vertex -3.15837 2.29468 4
      vertex -2.45532 1.78394 4
      vertex -1.95198 3.38092 4
    endloop
  endfacet
  facet normal 0 0 1
    outer loop
      vertex -3.15837 2.29468 4
      vertex -2.96864 0.630997 4
      vertex -2.45532 1.78394 4
    endloop
  endfacet
  facet normal 0 0 -1
    outer loop
      vertex -3.81865 -0.811676 0
      vertex -2.96864 -0.630997 0
      vertex -3.15837 -2.29468 0
    endloop
  endfacet
  facet normal -0.913545 -0.406739 0
    outer loop
      vertex -3.81865 -0.811676 0
      vertex -3.15837 -2.29468 0
      vertex -3.81865 -0.811676 4
    endloop
  endfacet
  facet normal -1 0 0
    outer loop
      vertex -3.81865 -0.811676 0
      vertex -3.81865 -0.811676 4
      vertex -3.81865 0.811676 4
    endloop
  endfacet
  facet normal 0 0 -1
    outer loop
      vertex -3.81865 -0.811676 0
      vertex -3.81865 0.811676 0
      vertex -2.96864 -0.630997 0
    endloop
  endfacet
  facet normal -1 0 0
    outer loop
      vertex -3.81865 -0.811676 0
      vertex -3.81865 0.811676 4
      vertex -3.81865 0.811676 0
    endloop
  endfacet
  facet normal 0 0 1
    outer loop
      vertex -3.81865 -0.811676 4
      vertex -2.96864 -0.630997 4
      vertex -3.81865 0.811676 4
    endloop
  endfacet
  facet normal -0.913545 -0.406739 0
    outer loop
      vertex -3.81865 -0.811676 4
      vertex -3.15837 -2.29468 0
      vertex -3.15837 -2.29468 4
    endloop
  endfacet
  facet normal 0 0 1
    outer loop
      vertex -3.81865 -0.811676 4
      vertex -3.15837 -2.29468 4
      vertex -2.96864 -0.630997 4
    endloop
  endfacet
  facet normal 0 0 -1
    outer loop
      vertex -3.81865 0.811676 0
      vertex -2.96864 0.630997 0
      vertex -2.96864 -0.630997 0
    endloop
  endfacet
  facet normal 0 0 -1
    outer loop
      vertex -3.81865 0.811676 0
      vertex -3.15837 2.29468 0
      vertex -2.96864 0.630997 0
    endloop
  endfacet
  facet normal -0.913545 0.406739 0
    outer loop
      vertex -3.81865 0.811676 0
      vertex -3.15837 2.29468 4
      vertex -3.15837 2.29468 0
    endloop
  endfacet
  facet normal -0.913545 0.406739 0
    outer loop
      vertex -3.81865 0.811676 0
      vertex -3.81865 0.811676 4
      vertex -3.15837 2.29468 4
    endloop
  endfacet
  facet normal 0 0 1
    outer loop
      vertex -3.81865 0.811676 4
      vertex -2.96864 -0.630997 4
      vertex -2.96864 0.630997 4
    endloop
  endfacet
  facet normal 0 0 1
    outer loop
      vertex -3.81865 0.811676 4
      vertex -2.96864 0.630997 4
      vertex -3.15837 2.29468 4
    endloop
  endfacet
  facet normal -0.500004 0.866023 0
    outer loop
      vertex 0.937851 -2.88644 0
      vertex 0.937851 -2.88644 4
      vertex 2.03078 -2.25543 0
    endloop
  endfacet
  facet normal 0 0 -1
    outer loop
      vertex 0.937851 -2.88644 0
      vertex 2.03078 -2.25543 0
      vertex 1.20639 -3.71289 0
    endloop
  endfacet
  facet normal 0 0 1
    outer loop
      vertex 0.937851 -2.88644 4
      vertex 1.20639 -3.71289 4
      vertex 2.03078 -2.25543 4
    endloop
  endfacet
  facet normal -0.500004 0.866023 0
    outer loop
      vertex 0.937851 -2.88644 4
      vertex 2.03078 -2.25543 4
      vertex 2.03078 -2.25543 0
    endloop
  endfacet
  facet normal 0 0 -1
    outer loop
      vertex 0.937851 2.88644 0
      vertex 1.20639 3.71289 0
      vertex 2.03078 2.25543 0
    endloop
  endfacet
  facet normal -0.500004 -0.866023 0
    outer loop
      vertex 0.937851 2.88644 0
      vertex 2.03078 2.25543 0
      vertex 2.03078 2.25543 4
    endloop
  endfacet
  facet normal -0.500004 -0.866023 0
    outer loop
      vertex 0.937851 2.88644 0
      vertex 2.03078 2.25543 4
      vertex 0.937851 2.88644 4
    endloop
  endfacet
  facet normal 0 0 1
    outer loop
      vertex 0.937851 2.88644 4
      vertex 2.03078 2.25543 4
      vertex 1.20639 3.71289 4
    endloop
  endfacet
  facet normal 0 0 -1
    outer loop
      vertex 1.20639 -3.71289 0
      vertex 2.03078 -2.25543 0
      vertex 2.61226 -2.9012 0
    endloop
  endfacet
  facet normal 0.500005 -0.866023 0
    outer loop
      vertex 1.20639 -3.71289 0
      vertex 2.61226 -2.9012 0
      vertex 1.20639 -3.71289 4
    endloop
  endfacet
  facet normal 0.500005 -0.866023 0
    outer loop
      vertex 1.20639 -3.71289 4
      vertex 2.61226 -2.9012 0
      vertex 2.61226 -2.9012 4
    endloop
  endfacet
  facet normal 0 0 1
    outer loop
      vertex 1.20639 -3.71289 4
      vertex 2.61226 -2.9012 4
      vertex 2.03078 -2.25543 4
    endloop
  endfacet
  facet normal 0.500005 0.866023 0
    outer loop
      vertex 1.20639 3.71289 0
      vertex 1.20639 3.71289 4
      vertex 2.61226 2.9012 4
    endloop
  endfacet
  facet normal 0 0 -1
    outer loop
      vertex 1.20639 3.71289 0
      vertex 2.61226 2.9012 0
      vertex 2.03078 2.25543 0
    endloop
  endfacet
  facet normal 0.500005 0.866023 0
    outer loop
      vertex 1.20639 3.71289 0
      vertex 2.61226 2.9012 4
      vertex 2.61226 2.9012 0
    endloop
  endfacet
  facet normal 0 0 1
    outer loop
      vertex 1.20639 3.71289 4
      vertex 2.03078 2.25543 4
      vertex 2.61226 2.9012 4
    endloop
  endfacet
  facet normal -0.809022 0.587778 0
    outer loop
      vertex 2.03078 -2.25543 0
      vertex 2.03078 -2.25543 4
      vertex 2.77258 -1.23441 0
    endloop
  endfacet
  facet normal 0 0 -1
    outer loop
      vertex 2.03078 -2.25543 0
      vertex 2.77258 -1.23441 0
      vertex 3.56644 -1.58788 0
    endloop
  endfacet
  facet normal 0 0 -1
    outer loop
      vertex 2.03078 -2.25543 0
      vertex 3.56644 -1.58788 0
      vertex 2.61226 -2.9012 0
    endloop
  endfacet
  facet normal 0 0 1
    outer loop
      vertex 2.03078 -2.25543 4
      vertex 2.61226 -2.9012 4
      vertex 3.56644 -1.58788 4
    endloop
  endfacet
  facet normal -0.809022 0.587778 0
    outer loop
      vertex 2.03078 -2.25543 4
      vertex 2.77258 -1.23441 4
      vertex 2.77258 -1.23441 0
    endloop
  endfacet
  facet normal 0 0 1
    outer loop
      vertex 2.03078 -2.25543 4
      vertex 3.56644 -1.58788 4
      vertex 2.77258 -1.23441 4
    endloop
  endfacet
  facet normal 0 0 -1
    outer loop
      vertex 2.03078 2.25543 0
      vertex 2.61226 2.9012 0
      vertex 3.56644 1.58788 0
    endloop
  endfacet
  facet normal -0.809022 -0.587778 0
    outer loop
      vertex 2.03078 2.25543 0
      vertex 2.77258 1.23441 0
      vertex 2.77258 1.23441 4
    endloop
  endfacet
  facet normal -0.809022 -0.587778 0
    outer loop
      vertex 2.03078 2.25543 0
      vertex 2.77258 1.23441 4
      vertex 2.03078 2.25543 4
    endloop
  endfacet
  facet normal 0 0 -1
    outer loop
      vertex 2.03078 2.25543 0
      vertex 3.56644 1.58788 0
      vertex 2.77258 1.23441 0
    endloop
  endfacet
  facet normal 0 0 1
    outer loop
      vertex 2.03078 2.25543 4
      vertex 2.77258 1.23441 4
      vertex 3.56644 1.58788 4
    endloop
  endfacet
  facet normal 0 0 1
    outer loop
      vertex 2.03078 2.25543 4
      vertex 3.56644 1.58788 4
      vertex 2.61226 2.9012 4
    endloop
  endfacet
  facet normal 0.809018 -0.587784 0
    outer loop
      vertex 2.61226 -2.9012 0
      vertex 3.56644 -1.58788 0
      vertex 2.61226 -2.9012 4
    endloop
  endfacet
  facet normal 0.809018 -0.587784 0
    outer loop
      vertex 2.61226 -2.9012 4
      vertex 3.56644 -1.58788 0
      vertex 3.56644 -1.58788 4
    endloop
  endfacet
  facet normal 0.809018 0.587784 0
    outer loop
      vertex 2.61226 2.9012 0
      vertex 2.61226 2.9012 4
      vertex 3.56644 1.58788 4
    endloop
  endfacet
  facet normal 0.809018 0.587784 0
    outer loop
      vertex 2.61226 2.9012 0
      vertex 3.56644 1.58788 4
      vertex 3.56644 1.58788 0
    endloop
  endfacet
  facet normal -0.978146 0.207918 0
    outer loop
      vertex 2.77258 -1.23441 0
      vertex 2.77258 -1.23441 4
      vertex 3.03497 0 0
    endloop
  endfacet
  facet normal 0 0 -1
    outer loop
      vertex 2.77258 -1.23441 0
      vertex 3.03497 0 0
      vertex 3.90396 0 0
    endloop
  endfacet
  facet normal 0 0 -1
    outer loop
      vertex 2.77258 -1.23441 0
      vertex 3.90396 0 0
      vertex 3.56644 -1.58788 0
    endloop
  endfacet
  facet normal -0.978146 0.207918 0
    outer loop
      vertex 2.77258 -1.23441 4
      vertex 3.03497 0 4
      vertex 3.03497 0 0
    endloop
  endfacet
  facet normal 0 0 1
    outer loop
      vertex 2.77258 -1.23441 4
      vertex 3.56644 -1.58788 4
      vertex 3.90396 0 4
    endloop
  endfacet
  facet normal 0 0 1
    outer loop
      vertex 2.77258 -1.23441 4
      vertex 3.90396 0 4
      vertex 3.03497 0 4
    endloop
  endfacet
  facet normal -0.978146 -0.207918 0
    outer loop
      vertex 2.77258 1.23441 0
      vertex 3.03497 0 0
      vertex 3.03497 0 4
    endloop
  endfacet
  facet normal -0.978146 -0.207918 0
    outer loop
      vertex 2.77258 1.23441 0
      vertex 3.03497 0 4
      vertex 2.77258 1.23441 4
    endloop
  endfacet
  facet normal 0 0 -1
    outer loop
      vertex 2.77258 1.23441 0
      vertex 3.56644 1.58788 0
      vertex 3.90396 0 0
    endloop
  endfacet
  facet normal 0 0 -1
    outer loop
      vertex 2.77258 1.23441 0
      vertex 3.90396 0 0
      vertex 3.03497 0 0
    endloop
  endfacet
  facet normal 0 0 1
    outer loop
      vertex 2.77258 1.23441 4
      vertex 3.03497 0 4
      vertex 3.90396 0 4
    endloop
  endfacet
  facet normal 0 0 1
    outer loop
      vertex 2.77258 1.23441 4
      vertex 3.90396 0 4
      vertex 3.56644 1.58788 4
    endloop
  endfacet
  facet normal 0.978147 -0.207915 0
    outer loop
      vertex 3.56644 -1.58788 0
      vertex 3.90396 0 0
      vertex 3.56644 -1.58788 4
    endloop
  endfacet
  facet normal 0.978147 -0.207915 0
    outer loop
      vertex 3.56644 -1.58788 4
      vertex 3.90396 0 0
      vertex 3.90396 0 4
    endloop
  endfacet
  facet normal 0.978147 0.207915 0
    outer loop
      vertex 3.56644 1.58788 0
      vertex 3.56644 1.58788 4
      vertex 3.90396 0 4
    endloop
  endfacet
  facet normal 0.978147 0.207915 0
    outer loop
      vertex 3.56644 1.58788 0
      vertex 3.90396 0 4
      vertex 3.90396 0 0
    endloop
  endfacet
endsolid OpenSCAD_Model
